<svg xmlns="http://www.w3.org/2000/svg" viewBox="0 0 1000 500" style="enable-background:new 0 0 1000 500" xml:space="preserve"><circle cx="987.5" cy="137.5" r="12.5"/><path d="M737.5 175c6.9 0 12.5-5.6 12.5-12.5v-50c0-6.9-5.6-12.5-12.5-12.5s-12.5 5.6-12.5 12.5v50c0 6.9 5.6 12.5 12.5 12.5z"/><circle cx="637.5" cy="162.5" r="12.5"/><circle cx="837.5" cy="212.5" r="12.5"/><circle cx="587.5" cy="212.5" r="12.5"/><path d="M1000 500V187.5c0-6.9-5.6-12.5-12.5-12.5s-12.5 5.6-12.5 12.5v125c0 6.9-5.6 12.5-12.5 12.5s-12.5-5.6-12.5-12.5v-75c0-6.9-5.6-12.5-12.5-12.5s-12.5 5.6-12.5 12.5v200c0 6.9-5.6 12.5-12.5 12.5s-12.5-5.6-12.5-12.5v-150c0-6.9-5.6-12.5-12.5-12.5s-12.5 5.6-12.5 12.5v75c0 6.9-5.6 12.5-12.5 12.5s-12.5-5.6-12.5-12.5v-100c0-6.9-5.6-12.5-12.5-12.5s-12.5 5.6-12.5 12.5v150c0 6.9-5.6 12.5-12.5 12.5s-12.5-5.6-12.5-12.5v-250c0-6.9-5.6-12.5-12.5-12.5s-12.5 5.6-12.5 12.5v125c0 6.9-5.6 12.5-12.5 12.5s-12.5-5.6-12.5-12.5v-75c0-6.9-5.6-12.5-12.5-12.5s-12.5 5.6-12.5 12.5v175c0 6.9-5.6 12.5-12.5 12.5s-12.5-5.6-12.5-12.5v-125c0-6.9-5.6-12.5-12.5-12.5s-12.5 5.6-12.5 12.5v100c0 6.9-5.6 12.5-12.5 12.5s-12.5-5.6-12.5-12.5v-150c0-6.9-5.6-12.5-12.5-12.5s-12.5 5.6-12.5 12.5v200c0 6.9-5.6 12.5-12.5 12.5s-12.5-5.6-12.5-12.5v-150c0-6.9-5.6-12.5-12.5-12.5s-12.5 5.6-12.5 12.5v100c0 6.9-5.6 12.5-12.5 12.5s-12.5-5.6-12.5-12.5v-50c0-6.9-5.6-12.5-12.5-12.5s-12.5 5.6-12.5 12.5v75c0 6.9-5.6 12.5-12.5 12.5s-12.5-5.6-12.5-12.5v-200c0-6.9-5.6-12.5-12.5-12.5s-12.5 5.6-12.5 12.5v125c0 6.9-5.6 12.5-12.5 12.5s-12.5-5.6-12.5-12.5v-75c0-6.9-5.6-12.5-12.5-12.5s-12.5 5.6-12.5 12.5v200c0 6.9-5.6 12.5-12.5 12.5s-12.5-5.6-12.5-12.5v-150c0-6.9-5.6-12.5-12.5-12.5s-12.5 5.6-12.5 12.5v75c0 6.9-5.6 12.5-12.5 12.5s-12.5-5.6-12.5-12.5v-100c0-6.9-5.6-12.5-12.5-12.5s-12.5 5.6-12.5 12.5v150c0 6.9-5.6 12.5-12.5 12.5s-12.5-5.6-12.5-12.5v-250c0-6.9-5.6-12.5-12.5-12.5s-12.5 5.6-12.5 12.5v125c0 6.9-5.6 12.5-12.5 12.5s-12.5-5.6-12.5-12.5v-75c0-6.9-5.6-12.5-12.5-12.5s-12.5 5.6-12.5 12.5v175c0 6.9-5.6 12.5-12.5 12.5s-12.5-5.6-12.5-12.5v-125c0-6.9-5.6-12.5-12.5-12.5s-12.5 5.6-12.5 12.5v100c0 6.9-5.6 12.5-12.5 12.5s-12.5-5.6-12.5-12.5v-150c0-6.9-5.6-12.5-12.5-12.5s-12.5 5.6-12.5 12.5v200c0 6.9-5.6 12.5-12.5 12.5s-12.5-5.6-12.5-12.5v-150c0-6.9-5.6-12.5-12.5-12.5S75 255.6 75 262.5v100c0 6.9-5.6 12.5-12.5 12.5S50 369.4 50 362.5v-50c0-6.9-5.6-12.5-12.5-12.5S25 305.6 25 312.5v75c0 6.9-5.6 12.5-12.5 12.5S0 394.4 0 387.5V500h1000z"/><circle cx="487.5" cy="137.5" r="12.5"/><path d="M237.5 175c6.9 0 12.5-5.6 12.5-12.5v-50c0-6.9-5.6-12.5-12.5-12.5s-12.5 5.6-12.5 12.5v50c0 6.9 5.6 12.5 12.5 12.5z"/><circle cx="137.5" cy="162.5" r="12.5"/><circle cx="337.5" cy="212.5" r="12.5"/><circle cx="87.5" cy="212.5" r="12.5"/></svg>